<svg width="148" height="24" viewBox="0 0 148 24" fill="none" xmlns="http://www.w3.org/2000/svg">
<g clip-path="url(#clip0_4139_22)">
<path fill-rule="evenodd" clip-rule="evenodd" d="M10.1625 12.8858L7.44979 1.73944C7.37482 1.43451 7.23764 1.14829 7.04682 0.898648C6.856 0.649008 6.61565 0.441316 6.34077 0.288547C6.0659 0.135779 5.76241 0.0412155 5.44926 0.0107652C5.13612 -0.0196851 4.82004 0.0146317 4.52078 0.111572L1.58517 1.06391C1.28566 1.16043 1.00932 1.31757 0.773424 1.5255C0.537531 1.73343 0.347156 1.98769 0.214201 2.27238C0.0812455 2.55706 0.00856845 2.86606 0.000712925 3.18005C-0.0071426 3.49404 0.0499923 3.80627 0.168546 4.09722L4.5439 14.7064C4.7624 15.2401 5.17494 15.6716 5.69884 15.9145C6.22273 16.1574 6.81927 16.1938 7.36889 16.0163L8.64848 15.6011C9.19784 15.423 9.65931 15.044 9.94017 14.5403C10.221 14.0366 10.3005 13.4455 10.1625 12.8858ZM10.5703 23.6696C9.9805 23.8598 9.34741 23.8715 8.75097 23.703C8.15453 23.5345 7.62148 23.1934 7.21912 22.7228C6.81675 22.2523 6.56311 21.6733 6.4902 21.059C6.41729 20.4447 6.52838 19.8226 6.80946 19.2713C7.09054 18.72 7.529 18.2641 8.06949 17.9612C8.60999 17.6583 9.22828 17.522 9.84633 17.5695C10.4644 17.617 11.0545 17.8462 11.5421 18.2281C12.0298 18.6099 12.3931 19.1274 12.5863 19.7152C12.715 20.1069 12.765 20.5202 12.7333 20.9312C12.7015 21.3422 12.5888 21.7429 12.4015 22.1103C12.2142 22.4777 11.956 22.8046 11.6417 23.0722C11.3275 23.3398 10.9634 23.5428 10.5703 23.6696ZM17.0871 20.8076C21.1125 19.5027 24.3618 14.8712 22.7454 9.90517C21.1273 4.94247 15.7712 3.09876 11.7459 4.40369C11.294 4.54986 10.9144 4.8614 10.6834 5.27563C10.4524 5.68985 10.3873 6.176 10.501 6.63625L10.9071 8.30531C10.9692 8.55587 11.0822 8.79101 11.2392 8.99607C11.3963 9.20113 11.5939 9.37173 11.8199 9.49724C12.0459 9.62275 12.2954 9.70048 12.5528 9.72559C12.8102 9.7507 13.07 9.72266 13.3161 9.6432L13.4812 9.59047C13.8795 9.4492 14.3021 9.38902 14.7241 9.41347C15.146 9.43793 15.5588 9.54653 15.938 9.73285C16.3173 9.91918 16.6552 10.1795 16.9319 10.4983C17.2087 10.8172 17.4186 11.1881 17.5492 11.5893C17.6799 11.9904 17.7286 12.4137 17.6926 12.8339C17.6566 13.2542 17.5366 13.663 17.3396 14.0362C17.1426 14.4095 16.8727 14.7395 16.5457 15.0068C16.2188 15.2742 15.8415 15.4734 15.4361 15.5928L15.2709 15.6456C15.0253 15.7257 14.7989 15.8556 14.6058 16.0269C14.4127 16.1983 14.2571 16.4076 14.1487 16.6416C14.0402 16.8757 13.9813 17.1296 13.9755 17.3874C13.9698 17.6452 14.0173 17.9014 14.1152 18.1401L14.7641 19.7317C14.9435 20.1707 15.2828 20.5257 15.7137 20.7253C16.1447 20.9249 16.6353 20.9543 17.0871 20.8076Z" fill="#E16259"/>
<path fill-rule="evenodd" clip-rule="evenodd" d="M35.2473 8.04996C37.3871 6.9065 40.0239 7.11575 41.8103 8.89685C43.5241 10.6104 43.5588 13.0736 43.5588 14.0424C43.5588 16.7858 42.2891 19.0974 39.872 19.8092C36.654 20.7928 31.7255 19.9245 31.7255 19.9245C31.6162 19.9124 31.5152 19.8605 31.4418 19.7787C31.3684 19.697 31.3278 19.5911 31.3276 19.4813V4.32299C31.3276 4.22729 31.3657 4.13551 31.4335 4.06784C31.5014 4.00017 31.5933 3.96216 31.6892 3.96216H34.7074C34.8033 3.96216 34.8953 4.00017 34.9631 4.06784C35.0309 4.13551 35.069 4.22729 35.069 4.32299V7.94781C35.0691 7.96858 35.0746 7.98897 35.0851 8.00692C35.0956 8.02487 35.1106 8.03977 35.1287 8.05011C35.1467 8.06045 35.1672 8.06588 35.188 8.06586C35.2088 8.06583 35.2293 8.06035 35.2473 8.04996ZM35.2159 16.738C36.1438 16.9983 37.9963 17.0972 39.0563 15.9982V16.0015C39.7828 15.2963 40.6331 13.016 38.9259 11.3123C38.206 10.5774 37.0272 10.1804 35.3893 10.8625C35.2923 10.9087 35.2106 10.9817 35.1538 11.0728C35.0971 11.1639 35.0676 11.2693 35.069 11.3766V16.5304C35.0675 16.5762 35.0811 16.6213 35.1076 16.6588C35.1341 16.6962 35.1721 16.724 35.2159 16.738ZM87.5105 4.3329V20.0119C87.5109 20.0755 87.5365 20.1365 87.5816 20.1815C87.6267 20.2265 87.6877 20.252 87.7515 20.2524H91.0322C91.0963 20.2524 91.1578 20.2271 91.2033 20.1821C91.2487 20.137 91.2745 20.0758 91.2749 20.0119V4.3329C91.2749 4.2372 91.2368 4.14542 91.169 4.07775C91.1012 4.01008 91.0092 3.97207 90.9133 3.97207H87.8688C87.7734 3.97294 87.6823 4.01134 87.6152 4.07891C87.5481 4.14649 87.5105 4.23777 87.5105 4.3329ZM58.1973 17.4794C58.0128 17.4536 57.8379 17.3816 57.6887 17.2702C57.5236 17.1252 57.4361 16.8698 57.418 16.4546V7.77977C57.4175 7.69644 57.3842 7.61664 57.3251 7.55772C57.2661 7.4988 57.1861 7.4655 57.1026 7.46507H54.0085C53.9249 7.46507 53.8446 7.49822 53.7855 7.55724C53.7264 7.61626 53.6931 7.6963 53.6931 7.77977V15.8269C53.6947 15.8389 53.6947 15.8511 53.6931 15.8631C53.3959 16.911 52.1642 17.2274 51.1984 17.0642C49.8263 16.8336 49.2534 15.6835 49.3029 14.3588C49.3029 14.3127 49.3211 8.22793 49.3244 7.77977C49.3244 7.6963 49.2912 7.61626 49.232 7.55724C49.1729 7.49822 49.0927 7.46507 49.009 7.46507H45.9215C45.8386 7.46507 45.7591 7.49782 45.7003 7.55617C45.6415 7.61453 45.6082 7.69373 45.6078 7.77647C45.6078 9.09459 45.5979 15.4314 45.5979 15.4314C45.5979 16.42 45.9083 19.623 49.1345 20.2096C50.6518 20.4847 52.4565 19.9987 53.9144 18.964C53.9278 18.954 53.9431 18.9468 53.9594 18.9428C53.9756 18.9389 53.9926 18.9383 54.0091 18.9411C54.0256 18.9439 54.0414 18.9499 54.0555 18.959C54.0695 18.968 54.0816 18.9798 54.091 18.9936C54.4422 19.477 54.9419 19.8328 55.5143 20.0069C56.3656 20.2863 57.5221 20.1736 57.8715 20.1396H57.8716L57.8803 20.1387C57.9351 20.1327 57.9863 20.1082 58.0253 20.0693C58.0643 20.0303 58.0889 19.9793 58.0949 19.9246L58.3905 17.7562C58.4015 17.694 58.3874 17.6299 58.3512 17.578C58.315 17.5261 58.2596 17.4907 58.1973 17.4794ZM120.098 12.7458C119.987 11.3337 119.55 9.86073 118.651 8.79141C118.637 8.77431 118.621 8.75543 118.604 8.73499C118.235 8.29072 117.247 7.10301 114.203 7.11246C112.957 7.11246 111.709 7.19649 110.467 7.31512C109.757 7.37938 109.047 7.45188 108.339 7.52602C107.88 7.57414 107.881 7.85183 107.883 8.22548V8.29547V23.2594C107.874 23.3321 107.879 23.406 107.899 23.4767C107.918 23.5474 107.952 23.6135 107.997 23.6713C108.109 23.7519 108.248 23.7872 108.385 23.7701H111.103C111.169 23.789 111.24 23.7901 111.307 23.7733C111.375 23.7566 111.437 23.7225 111.487 23.6745C111.537 23.6265 111.573 23.5663 111.593 23.4999C111.612 23.4334 111.614 23.363 111.598 23.2956C111.605 22.4264 111.602 21.5689 111.6 20.7084C111.599 20.2771 111.598 19.8451 111.598 19.4105C111.598 19.3874 111.604 19.3647 111.616 19.3451C111.628 19.3255 111.646 19.3098 111.667 19.2999C111.688 19.29 111.711 19.2863 111.734 19.2893C111.757 19.2922 111.778 19.3017 111.796 19.3166C112.879 20.2574 114.499 20.5177 115.889 20.1157C117.362 19.6939 118.584 18.5669 119.285 17.2043C119.987 15.8417 120.215 14.2748 120.098 12.7458ZM116.3 14.5483C115.99 15.7593 115.433 16.6902 113.763 16.7907C112.927 16.8385 111.6 16.3673 111.6 15.5912V10.9498C111.6 10.7719 111.619 10.6417 111.793 10.5643C112.151 10.3995 113.114 10.2661 113.852 10.2891C117.028 10.3797 116.462 13.9502 116.309 14.5483H116.3ZM67.9171 13.4081C67.653 13.7821 67.653 13.909 67.9006 14.2583L72.2793 19.8784C72.3052 19.9145 72.3205 19.957 72.3234 20.0013C72.3264 20.0456 72.3168 20.0898 72.2958 20.1289C72.2761 20.1686 72.2454 20.202 72.2074 20.2251C72.1694 20.2481 72.1256 20.2599 72.0812 20.259H68.4752C68.4353 20.2589 68.396 20.2488 68.3608 20.2299C68.3257 20.2109 68.2958 20.1836 68.2738 20.1503L64.5027 15.27C64.4794 15.2403 64.4476 15.2185 64.4115 15.2075C64.3754 15.1964 64.3368 15.1966 64.3009 15.2081C64.2649 15.2196 64.2333 15.2418 64.2104 15.2717C64.1875 15.3016 64.1742 15.3378 64.1725 15.3754V20.0185C64.1721 20.0824 64.1463 20.1436 64.1008 20.1887C64.0554 20.2337 63.9939 20.259 63.9298 20.259H60.6739C60.6101 20.2586 60.549 20.2331 60.5039 20.1881C60.4588 20.1431 60.4332 20.0821 60.4328 20.0185V4.33291C60.4324 4.28511 60.4415 4.23769 60.4595 4.19343C60.4776 4.14916 60.5043 4.10892 60.5381 4.07504C60.5719 4.04116 60.6121 4.01432 60.6564 3.99608C60.7007 3.97784 60.7481 3.96856 60.796 3.96878H63.8093C63.9052 3.96878 63.9971 4.00679 64.0649 4.07446C64.1327 4.14213 64.1708 4.23391 64.1708 4.32961V12.5678C64.172 12.6015 64.1835 12.6339 64.2037 12.6608C64.2239 12.6878 64.2519 12.7079 64.2839 12.7185C64.3159 12.729 64.3504 12.7296 64.3827 12.72C64.415 12.7105 64.4437 12.6913 64.4647 12.665C65.1912 11.6765 67.6959 8.17356 68.0971 7.60183C68.1192 7.56973 68.1487 7.5435 68.1833 7.52541C68.2178 7.50732 68.2562 7.49792 68.2952 7.49803H71.817C71.8624 7.49688 71.907 7.50908 71.9455 7.5331C71.984 7.55713 72.0145 7.59192 72.0333 7.63314C72.0542 7.67329 72.063 7.71863 72.0586 7.76367C72.0542 7.8087 72.0368 7.8515 72.0085 7.88687L67.9171 13.4081ZM143.494 14.2583C143.248 13.909 143.248 13.7821 143.512 13.4081L147.61 7.88687C147.637 7.85107 147.654 7.8084 147.658 7.76362C147.662 7.71885 147.654 7.67375 147.634 7.63339C147.614 7.59302 147.584 7.55897 147.546 7.53506C147.507 7.51116 147.463 7.49833 147.418 7.49803H143.89C143.851 7.49777 143.812 7.50711 143.778 7.52521C143.743 7.54332 143.714 7.56963 143.692 7.60183C143.29 8.17356 140.786 11.6765 140.059 12.665C140.038 12.6919 140.01 12.7117 139.977 12.7217C139.944 12.7316 139.91 12.7312 139.877 12.7206C139.845 12.7099 139.816 12.6895 139.796 12.6622C139.776 12.6348 139.765 12.6019 139.764 12.5678V4.32961C139.764 4.28222 139.754 4.2353 139.736 4.19152C139.718 4.14774 139.691 4.10797 139.658 4.07446C139.624 4.04095 139.584 4.01437 139.541 3.99624C139.497 3.97811 139.45 3.96877 139.402 3.96877H136.382C136.335 3.96877 136.288 3.97811 136.244 3.99624C136.2 4.01437 136.16 4.04095 136.127 4.07446C136.093 4.10797 136.066 4.14774 136.048 4.19152C136.03 4.2353 136.021 4.28222 136.021 4.32961V20.0152C136.021 20.0791 136.047 20.1403 136.092 20.1854C136.138 20.2304 136.199 20.2557 136.263 20.2557H139.519C139.583 20.2553 139.644 20.2298 139.689 20.1848C139.735 20.1398 139.76 20.0788 139.76 20.0152V15.3754C139.763 15.3382 139.777 15.3027 139.8 15.2734C139.823 15.244 139.854 15.2223 139.89 15.2109C139.925 15.1996 139.963 15.1991 139.999 15.2096C140.035 15.2202 140.067 15.2412 140.091 15.27L143.862 20.1503C143.884 20.1835 143.914 20.2107 143.949 20.2297C143.984 20.2486 144.023 20.2587 144.063 20.259H147.671C147.715 20.2595 147.759 20.2475 147.797 20.2245C147.835 20.2015 147.865 20.1684 147.885 20.1289C147.907 20.0897 147.916 20.0454 147.913 20.001C147.91 19.9567 147.894 19.9141 147.867 19.8784L143.494 14.2583ZM85.2198 17.4772L85.2584 17.486C85.3186 17.4999 85.3713 17.5359 85.4059 17.587C85.4405 17.638 85.4545 17.7003 85.4449 17.7612L85.1461 19.9295C85.1407 19.9838 85.1168 20.0345 85.0783 20.0732C85.0398 20.1119 84.9891 20.1362 84.9348 20.142L84.8772 20.148C84.4589 20.1922 83.1682 20.3286 82.2402 19.8883C81.8002 19.6942 81.4208 19.3851 81.1422 18.9936C81.1339 18.9803 81.1229 18.9688 81.1099 18.9598C81.097 18.9508 81.0823 18.9446 81.0668 18.9415C81.0514 18.9385 81.0354 18.9386 81.02 18.9418C81.0046 18.9451 80.99 18.9515 80.9771 18.9607C80.5049 19.3001 78.446 20.6215 76.123 20.1931C75.4465 20.0762 74.8125 19.7848 74.2837 19.3479C72.5517 17.865 72.4361 14.6834 74.1367 13.0984C74.5635 12.7422 75.046 12.4583 75.5649 12.2581C77.7625 11.3074 80.7509 11.4491 80.7509 11.4491C80.784 10.879 80.6783 10.1507 79.2551 10.0222C78.1107 9.89633 75.9957 10.2674 75.3689 10.3773C75.3147 10.3868 75.2717 10.3944 75.2413 10.3995C75.194 10.4082 75.1454 10.4074 75.0984 10.397C75.0513 10.3867 75.0069 10.367 74.9676 10.3392C74.9284 10.3114 74.8951 10.276 74.8698 10.2351C74.8445 10.1943 74.8277 10.1488 74.8203 10.1013L74.1367 8.07304C74.1287 8.02618 74.13 7.9782 74.1406 7.93186C74.1512 7.88551 74.1709 7.84171 74.1985 7.80297C74.2261 7.76424 74.2611 7.73133 74.3015 7.70614C74.3419 7.68095 74.3869 7.66397 74.4339 7.65619C75.0845 7.55403 76.899 7.29535 77.6849 7.21132C81.7061 6.73493 82.9374 8.05759 83.3885 8.54211C83.4164 8.57205 83.4413 8.59879 83.4637 8.62171C84.4427 9.71574 84.5088 11.2579 84.4989 12.6469L84.4725 16.2717C84.4725 17.3072 84.827 17.3879 85.2198 17.4772ZM80.5462 16.5815C80.6704 16.4545 80.7402 16.2844 80.741 16.107V14.0013C80.741 13.7801 80.1421 13.8453 79.9937 13.8614C79.9853 13.8623 79.9783 13.8631 79.973 13.8636C79.9673 13.8642 79.9634 13.8645 79.9617 13.8645C78.9513 14.0013 78.2347 14.1891 77.7774 14.4264C77.1962 14.7328 76.9039 15.1958 76.9039 15.8104C76.8956 16.0196 76.9361 16.2278 77.022 16.4188C77.1079 16.6097 77.2371 16.7782 77.3993 16.911C78.6211 17.781 80.15 17.0016 80.5462 16.5815ZM105.638 17.486L105.599 17.4771C105.208 17.3878 104.853 17.3069 104.853 16.2717L104.88 12.6469C104.89 11.2579 104.822 9.71574 103.845 8.62171C103.822 8.59847 103.796 8.57131 103.768 8.54086C103.315 8.05532 102.082 6.73534 98.0658 7.21132C97.2799 7.29535 95.4653 7.55403 94.8148 7.65619C94.7204 7.6727 94.6364 7.72579 94.581 7.80387C94.5257 7.88195 94.5035 7.9787 94.5193 8.07304L95.2028 10.1013C95.2102 10.1488 95.227 10.1943 95.2523 10.2351C95.2777 10.276 95.3109 10.3114 95.3502 10.3392C95.3894 10.367 95.4339 10.3867 95.4809 10.397C95.5279 10.4074 95.5765 10.4082 95.6238 10.3995L95.6512 10.3945C96.1001 10.3127 98.4183 9.89 99.6327 10.0189C101.056 10.1474 101.162 10.8757 101.13 11.4458C101.13 11.4458 98.1401 11.3041 95.9425 12.2548C95.4259 12.4557 94.9457 12.7395 94.5209 13.0951C92.822 14.6801 92.9359 17.8617 94.6679 19.3446C95.1966 19.7815 95.8307 20.0729 96.5072 20.1898C98.8319 20.6182 100.889 19.2968 101.361 18.9574C101.374 18.9482 101.389 18.9418 101.404 18.9386C101.42 18.9353 101.436 18.9352 101.451 18.9382C101.466 18.9413 101.481 18.9475 101.494 18.9565C101.507 18.9655 101.518 18.977 101.526 18.9903C101.805 19.3818 102.184 19.6909 102.624 19.885C103.552 20.3253 104.843 20.1889 105.261 20.1447L105.319 20.1387C105.373 20.1329 105.424 20.1086 105.462 20.0699C105.501 20.0312 105.525 19.9805 105.53 19.9262L105.837 17.7612C105.847 17.6984 105.831 17.6345 105.793 17.5832C105.756 17.5318 105.7 17.497 105.638 17.486ZM101.129 16.107C101.128 16.2844 101.058 16.4545 100.934 16.5815C100.536 17.0016 99.0069 17.781 97.7868 16.911C97.6247 16.7781 97.4956 16.6096 97.4097 16.4187C97.3237 16.2277 97.2833 16.0195 97.2914 15.8104C97.2914 15.1958 97.5837 14.7328 98.1665 14.4264C98.6238 14.1891 99.3388 14.0013 100.349 13.8645C100.353 13.8645 100.364 13.8633 100.381 13.8614C100.53 13.8453 101.13 13.7801 101.13 14.0013L101.129 16.107ZM133.714 17.4772C133.726 17.4801 133.739 17.4831 133.752 17.486C133.812 17.4995 133.865 17.5348 133.901 17.585C133.936 17.6353 133.951 17.6969 133.944 17.7579L133.645 19.9262C133.639 19.9805 133.615 20.0312 133.577 20.0699C133.539 20.1086 133.488 20.1329 133.433 20.1387C133.416 20.1405 133.397 20.1425 133.375 20.1449C132.954 20.1892 131.665 20.3249 130.739 19.885C130.299 19.6913 129.919 19.3821 129.641 18.9903C129.632 18.9772 129.621 18.9658 129.608 18.957C129.595 18.9482 129.581 18.942 129.565 18.939C129.55 18.9359 129.534 18.9359 129.519 18.9391C129.503 18.9423 129.489 18.9485 129.476 18.9574C129.004 19.2968 126.945 20.6182 124.622 20.1898C123.945 20.0733 123.311 19.7818 122.782 19.3446C121.05 17.8617 120.935 14.6801 122.635 13.0951C123.06 12.7395 123.54 12.4557 124.057 12.2548C126.255 11.3041 129.243 11.4458 129.243 11.4458C129.274 10.8757 129.17 10.1474 127.747 10.0189C126.526 9.88944 124.193 10.3163 123.76 10.3956L123.738 10.3995C123.691 10.4082 123.642 10.4074 123.595 10.3971C123.548 10.3867 123.503 10.3671 123.464 10.3393C123.425 10.3115 123.391 10.2761 123.366 10.2353C123.34 10.1944 123.323 10.1488 123.316 10.1013L122.632 8.07304C122.617 7.97852 122.639 7.88178 122.695 7.80376C122.751 7.72574 122.835 7.67272 122.929 7.65619C123.578 7.55403 125.394 7.29535 126.179 7.21132C130.2 6.73493 131.431 8.0576 131.882 8.54211C131.91 8.57205 131.935 8.59879 131.957 8.62171C132.935 9.71574 133.003 11.2579 132.993 12.6469L132.966 16.2717C132.966 17.3072 133.321 17.3879 133.714 17.4772ZM129.047 16.5815C129.171 16.4545 129.241 16.2844 129.241 16.107V14.0013C129.241 13.7801 128.643 13.8452 128.494 13.8614C128.477 13.8633 128.465 13.8645 128.462 13.8645C127.45 14.0013 126.735 14.1891 126.278 14.4264C125.695 14.7328 125.404 15.1958 125.404 15.8104C125.396 16.0196 125.436 16.2278 125.522 16.4188C125.608 16.6097 125.737 16.7782 125.9 16.911C127.121 17.781 128.649 17.0016 129.047 16.5815Z" fill="#E16259"/>
</g>
<defs>
<clipPath id="clip0_4139_22">
<rect width="148" height="24" fill="white"/>
</clipPath>
</defs>
</svg>
