<svg width="54" height="54" viewBox="0 0 54 54" fill="none" xmlns="http://www.w3.org/2000/svg">
<path d="M37 0.5C36.15 0.5 35.5 1.15 35.5 2C35.5 2.85 36.15 3.5 37 3.5H48.4004L25.2002 26.7002C24.6002 27.3002 24.6002 28.2498 25.2002 28.7998C25.5002 29.0998 25.9 29.25 26.25 29.25C26.6 29.25 26.9998 29.0998 27.2998 28.7998L50.5 5.59961V17C50.5 17.85 51.15 18.5 52 18.5C52.85 18.5 53.5 17.85 53.5 17V2C53.5 1.15 52.85 0.5 52 0.5H37ZM7 10.5C3.4 10.5 0.5 13.4 0.5 17V47C0.5 50.6 3.4 53.5 7 53.5H37C40.6 53.5 43.5 50.6 43.5 47V24.5C43.5 23.65 42.85 23 42 23C41.15 23 40.5 23.65 40.5 24.5V47C40.5 48.95 38.95 50.5 37 50.5H7C5.05 50.5 3.5 48.95 3.5 47V17C3.5 15.05 5.05 13.5 7 13.5H29.5C30.35 13.5 31 12.85 31 12C31 11.15 30.35 10.5 29.5 10.5H7Z" fill="#E16259"/>
</svg>
