<svg width="32" height="32" viewBox="0 0 32 32" fill="none" xmlns="http://www.w3.org/2000/svg">
<rect width="32" height="32" fill="#E16259"/>
<path d="M30.6035 27H20.0898V25.9336C20.3997 25.9062 20.778 25.8607 21.2246 25.7969C21.6803 25.7331 21.9902 25.6647 22.1543 25.5918C22.4915 25.4551 22.7331 25.2682 22.8789 25.0312C23.0247 24.7943 23.0977 24.4935 23.0977 24.1289V9.63672L16.4258 26.6855H14.7031C14.6211 26.3848 14.416 25.7878 14.0879 24.8945C13.7689 24.0013 13.5091 23.2858 13.3086 22.748L8.40039 9.41797V21.2168C8.40039 22.347 8.47331 23.2083 8.61914 23.8008C8.77409 24.3841 9.02018 24.8125 9.35742 25.0859C9.58529 25.2773 9.99089 25.4596 10.5742 25.6328C11.1667 25.806 11.5814 25.9062 11.8184 25.9336V27H3.47852V25.9336C3.70638 25.9062 4.07552 25.847 4.58594 25.7559C5.10547 25.6556 5.5293 25.487 5.85742 25.25C6.22201 24.9948 6.4681 24.5664 6.5957 23.9648C6.72331 23.3542 6.78711 22.4883 6.78711 21.3672V11.7559C6.78711 11.1725 6.71419 10.6895 6.56836 10.3066C6.42253 9.91471 6.20378 9.60482 5.91211 9.37695C5.54753 9.0944 5.17383 8.91211 4.79102 8.83008C4.4082 8.74805 4.02083 8.69336 3.62891 8.66602V7.59961H12.5566L17.3418 20.4102L21.375 10.0059C21.5117 9.62305 21.6439 9.16732 21.7715 8.63867C21.8991 8.11003 21.9674 7.76367 21.9766 7.59961H30.5762V8.66602C30.2845 8.68424 29.9792 8.7207 29.6602 8.77539C29.3411 8.83008 29.0358 8.90299 28.7441 8.99414C28.3887 9.11263 28.1517 9.29948 28.0332 9.55469C27.9238 9.8099 27.8691 10.0924 27.8691 10.4023V24.1426C27.8691 24.4707 27.9238 24.7487 28.0332 24.9766C28.1517 25.1953 28.3887 25.3867 28.7441 25.5508C28.9264 25.6328 29.2227 25.7103 29.6328 25.7832C30.0521 25.8561 30.3757 25.9062 30.6035 25.9336V27Z" fill="black"/>
</svg>
