<svg width="138" height="24" viewBox="0 0 138 24" fill="none" xmlns="http://www.w3.org/2000/svg">
<g clip-path="url(#clip0_4148_39)">
<path fill-rule="evenodd" clip-rule="evenodd" d="M80.9008 23.6793C79.9045 23.6793 79.0967 22.8669 79.0967 21.8648V6.20657C79.0967 5.20449 79.9045 4.39209 80.9008 4.39209C81.8965 4.39209 82.7042 5.20449 82.7042 6.20657V21.8648C82.7042 22.8669 81.8965 23.6793 80.9008 23.6793Z" fill="#E16259"/>
<path fill-rule="evenodd" clip-rule="evenodd" d="M82.2612 14.8361C82.9346 14.0791 84.1051 14.0026 84.8751 14.6657L91.6308 20.4857C92.4009 21.1481 92.479 22.3 91.805 23.057C91.1309 23.8147 89.9611 23.8911 89.191 23.2281L82.434 17.408C81.6646 16.745 81.5871 15.5938 82.2612 14.8361Z" fill="#E16259"/>
<path fill-rule="evenodd" clip-rule="evenodd" d="M79.3857 18.646C78.8213 17.8047 79.1285 16.6178 79.9178 16.0968L89.3429 9.87588C90.1322 9.35481 91.4076 9.49702 91.9712 10.339C92.5356 11.1803 92.2394 12.3596 91.4501 12.8806L82.0613 19.0776C81.2714 19.5987 79.9486 19.4879 79.3857 18.646Z" fill="#E16259"/>
<path fill-rule="evenodd" clip-rule="evenodd" d="M124.03 9.54822C125.013 9.54822 125.811 10.3631 125.811 11.3667V21.8602C125.811 22.8652 125.013 23.6794 124.03 23.6794C123.047 23.6794 122.249 22.8652 122.249 21.8602V11.3667C122.249 10.3631 123.047 9.54822 124.03 9.54822Z" fill="#E16259"/>
<path fill-rule="evenodd" clip-rule="evenodd" d="M113.704 17.6499C113.795 21.7622 116.457 23.6738 119.903 23.6738L120.194 23.6744C120.21 23.675 120.225 23.6794 120.24 23.6794H124.039C125.014 23.6794 125.805 22.8886 125.805 21.9135V21.8905C125.805 20.9147 125.014 20.1245 124.039 20.1245H122.396V20.1189H119.89C118.443 20.1189 117.333 19.4694 117.216 17.5703C117.216 17.5684 117.216 17.5665 117.216 17.5646V11.3079C117.216 11.1808 117.201 11.0575 117.176 10.9386C117.142 10.7406 117.07 10.5712 116.97 10.4243C116.665 9.90314 116.104 9.54822 115.456 9.54822C114.827 9.54822 114.28 9.87949 113.969 10.3745C113.929 10.433 113.898 10.4978 113.867 10.5625C113.854 10.5874 113.84 10.6105 113.83 10.636C113.8 10.7076 113.779 10.7848 113.759 10.8627C113.749 10.9 113.736 10.9368 113.729 10.9748C113.719 11.0296 113.717 11.0887 113.712 11.146C113.706 11.2002 113.695 11.2525 113.695 11.3079V11.3434V17.4376V17.5646C113.695 17.5939 113.703 17.6213 113.704 17.6499Z" fill="#E16259"/>
<path fill-rule="evenodd" clip-rule="evenodd" d="M54.4814 15.5776C54.3898 11.4654 51.6903 9.55315 48.1971 9.55315H48.1352V9.54822H47.8542H47.1962H44.9432C43.9543 9.54822 43.1523 10.339 43.1523 11.3141V11.3366C43.1523 12.3129 43.9543 13.1031 44.9432 13.1031H46.6083V13.1087H47.1962H48.1352H48.2097C49.6779 13.1087 50.8019 13.7582 50.9212 15.6568C50.9212 15.6586 50.9206 15.6605 50.9206 15.6629V21.9197C50.9206 22.0467 50.9357 22.17 50.9616 22.2889C50.9964 22.487 51.069 22.6563 51.17 22.8027C51.4801 23.3245 52.0478 23.6794 52.7051 23.6794C53.3423 23.6794 53.8973 23.3481 54.2137 22.8531C54.2534 22.7946 54.285 22.7298 54.3166 22.665C54.3286 22.6401 54.3431 22.6171 54.3538 22.591C54.3841 22.5193 54.4056 22.4427 54.4252 22.3643C54.4353 22.3269 54.4486 22.2908 54.4561 22.2522C54.4662 22.1981 54.4681 22.1389 54.4738 22.0816C54.4789 22.0275 54.4902 21.9745 54.4902 21.9197V21.8836V15.79V15.6629C54.4902 15.6337 54.4827 15.6063 54.4814 15.5776Z" fill="#E16259"/>
<path fill-rule="evenodd" clip-rule="evenodd" d="M44.952 9.54822C43.9581 9.54822 43.1523 10.3624 43.1523 11.3668V21.8601C43.1523 22.8651 43.9581 23.6794 44.952 23.6794C45.9459 23.6794 46.7517 22.8651 46.7517 21.8601V11.3668C46.7517 10.3624 45.9459 9.54822 44.952 9.54822Z" fill="#E16259"/>
<path fill-rule="evenodd" clip-rule="evenodd" d="M61.5001 15.5776C61.4089 11.4817 58.7412 9.57057 55.2838 9.55501V9.55315H50.076L48.8166 9.55254C48.8003 9.55254 48.7852 9.54822 48.7688 9.54822H44.9355C43.9509 9.54822 43.1523 10.339 43.1523 11.3141V11.3366C43.1523 12.3129 43.9509 13.1031 44.9355 13.1031H46.5934V13.1087H49.0071H50.076H55.0989H55.2222H55.2555C56.7167 13.1087 57.8365 13.7582 57.9553 15.6568C57.9553 15.6586 57.9546 15.6605 57.9546 15.6629V21.9197C57.9546 22.0467 57.9697 22.17 57.9955 22.2889C58.0301 22.487 58.1024 22.6563 58.203 22.8027C58.5111 23.3245 59.077 23.6794 59.7315 23.6794C60.3659 23.6794 60.9185 23.3481 61.2329 22.8531C61.2725 22.7946 61.3046 22.7298 61.336 22.665C61.348 22.6401 61.3624 22.6171 61.3731 22.591C61.4026 22.5193 61.424 22.4427 61.4442 22.3643C61.4542 22.3269 61.4674 22.2908 61.475 22.2522C61.4851 22.1981 61.4869 22.1389 61.492 22.0816C61.4976 22.0275 61.5089 21.9745 61.5089 21.9197V21.8836V15.79V15.6629C61.5089 15.6337 61.5014 15.6063 61.5001 15.5776Z" fill="#E16259"/>
<path fill-rule="evenodd" clip-rule="evenodd" d="M105.034 15.5776C104.943 11.4654 102.243 9.55315 98.7499 9.55315H98.6882V9.54822H98.407H97.7487H95.4962C94.5074 9.54822 93.7051 10.339 93.7051 11.3141V11.3366C93.7051 12.3129 94.5074 13.1031 95.4962 13.1031H97.1611V13.1087H97.7487H98.6882H98.7622C100.23 13.1087 101.355 13.7582 101.474 15.6568C101.474 15.6586 101.474 15.6605 101.474 15.6629V21.9197C101.474 22.0467 101.489 22.17 101.515 22.2889C101.549 22.487 101.622 22.6563 101.723 22.8027C102.033 23.3245 102.601 23.6794 103.258 23.6794C103.895 23.6794 104.45 23.3481 104.766 22.8531C104.806 22.7946 104.838 22.7298 104.869 22.665C104.882 22.6401 104.896 22.6171 104.907 22.591C104.937 22.5193 104.958 22.4427 104.978 22.3643C104.988 22.3269 105.002 22.2908 105.009 22.2522C105.019 22.1981 105.021 22.1389 105.027 22.0816C105.032 22.0275 105.043 21.9745 105.043 21.9197V21.8836V15.79V15.6629C105.043 15.6337 105.035 15.6063 105.034 15.5776Z" fill="#E16259"/>
<path fill-rule="evenodd" clip-rule="evenodd" d="M133.636 9.55315H133.698V9.54822H133.979H134.637H135.352C136.341 9.54822 137.143 10.339 137.143 11.3141V11.3366C137.143 12.3129 136.341 13.1031 135.352 13.1031H135.225V13.1087H134.637H133.698H133.623C132.155 13.1087 131.031 13.7582 130.912 15.6568C130.912 15.6586 130.913 15.6605 130.913 15.6629V21.9197C130.913 22.0467 130.898 22.17 130.871 22.2889C130.836 22.487 130.764 22.6563 130.663 22.8027C130.353 23.3245 129.785 23.6794 129.128 23.6794C128.491 23.6794 127.936 23.3481 127.619 22.8531C127.579 22.7946 127.548 22.7298 127.516 22.665C127.505 22.6401 127.49 22.6171 127.479 22.591C127.449 22.5193 127.427 22.4427 127.408 22.3643C127.398 22.3269 127.385 22.2908 127.377 22.2522C127.367 22.1981 127.365 22.1389 127.359 22.0816C127.354 22.0275 127.343 21.9745 127.343 21.9197V21.8836V15.79V15.6629C127.343 15.6337 127.35 15.6063 127.352 15.5776C127.444 11.4654 130.143 9.55315 133.636 9.55315Z" fill="#E16259"/>
<path fill-rule="evenodd" clip-rule="evenodd" d="M95.5051 9.54822C94.5108 9.54822 93.7051 10.3624 93.7051 11.3668V21.8601C93.7051 22.8651 94.5108 23.6794 95.5051 23.6794C96.4987 23.6794 97.3044 22.8651 97.3044 21.8601V11.3668C97.3044 10.3624 96.4987 9.54822 95.5051 9.54822Z" fill="#E16259"/>
<path fill-rule="evenodd" clip-rule="evenodd" d="M112.053 15.5776C111.962 11.4817 109.294 9.57057 105.837 9.55501V9.55315H100.629L99.3691 9.55254C99.3533 9.55254 99.3382 9.54822 99.3218 9.54822H95.4879C94.5039 9.54822 93.7051 10.339 93.7051 11.3141V11.3366C93.7051 12.3129 94.5039 13.1031 95.4879 13.1031H97.146V13.1087H99.5597H100.629H105.652H105.775H105.809C107.269 13.1087 108.389 13.7582 108.508 15.6568C108.508 15.6586 108.508 15.6605 108.508 15.6629V21.9197C108.508 22.0467 108.523 22.17 108.548 22.2889C108.583 22.487 108.655 22.6563 108.756 22.8027C109.064 23.3245 109.63 23.6794 110.284 23.6794C110.919 23.6794 111.471 23.3481 111.786 22.8531C111.825 22.7946 111.857 22.7298 111.889 22.665C111.901 22.6401 111.915 22.6171 111.926 22.591C111.955 22.5193 111.977 22.4427 111.997 22.3643C112.007 22.3269 112.021 22.2908 112.028 22.2522C112.038 22.1981 112.04 22.1389 112.045 22.0816C112.051 22.0275 112.062 21.9745 112.062 21.9197V21.8836V15.79V15.6629C112.062 15.6337 112.054 15.6063 112.053 15.5776Z" fill="#E16259"/>
<path fill-rule="evenodd" clip-rule="evenodd" d="M75.5652 23.6794C74.5696 23.6794 73.7632 22.8642 73.7632 21.8588V11.5478C73.7632 10.5422 74.5696 9.72705 75.5652 9.72705C76.5602 9.72705 77.3666 10.5422 77.3666 11.5478V21.8588C77.3666 22.8642 76.5602 23.6794 75.5652 23.6794Z" fill="#E16259"/>
<path fill-rule="evenodd" clip-rule="evenodd" d="M70.0685 12.9985C68.0603 12.9985 66.4272 14.6202 66.4272 16.6142C66.4272 18.6074 68.0603 20.2291 70.0685 20.2291C72.0762 20.2291 73.7103 18.6074 73.7103 16.6142C73.7103 14.6202 72.0762 12.9985 70.0685 12.9985ZM70.0685 23.6794C66.1434 23.6794 62.9507 20.5094 62.9507 16.6141C62.9507 12.7181 66.1434 9.54822 70.0685 9.54822C73.9928 9.54822 77.1869 12.7181 77.1869 16.6141C77.1869 20.5094 73.9928 23.6794 70.0685 23.6794Z" fill="#E16259"/>
<path d="M0.314655 19.6446L6.99374 6.37649C7.71504 4.94351 9.44859 4.34585 10.9028 5.01104L10.9468 5.03158L10.991 5.05312L11.0375 5.07674C11.5773 5.35678 12.0178 5.79445 12.2996 6.33075L12.3233 6.37696L14.1096 9.92697L10.3435 17.4086C9.94766 18.195 9.73632 19.0599 9.72487 19.9384L9.72439 20.0138C9.72439 21.521 10.3006 22.8944 11.2461 23.9286L2.97934 23.9285C1.33389 23.9285 0 22.6033 0 20.9685C0 20.5274 0.0992839 20.0919 0.290301 19.6941L0.314655 19.6446L6.99374 6.37649L0.314655 19.6446Z" fill="#E16259"/>
<path d="M25.3946 0.385814C23.4595 -0.536979 21.13 0.250187 20.1663 2.16456L12.0626 18.2627C11.789 18.8063 11.6465 19.4059 11.6465 20.0137C11.6465 22.1758 13.4107 23.9285 15.5869 23.9285H31.7906C32.4022 23.9285 33.0055 23.787 33.5525 23.5153C35.4991 22.5486 36.2882 20.1972 35.3152 18.2633L27.2151 2.16518C26.8422 1.42401 26.2424 0.81995 25.5026 0.439344L25.4531 0.414302L25.3946 0.385814Z" fill="#E16259"/>
</g>
<defs>
<clipPath id="clip0_4148_39">
<rect width="137.143" height="24" fill="white"/>
</clipPath>
</defs>
</svg>
