<svg width="173" height="29" viewBox="0 0 173 29" fill="none" xmlns="http://www.w3.org/2000/svg">
<g clip-path="url(#clip0_4139_25)">
<path d="M14.0057 3.96803C16.3624 3.96803 16.7386 1.51469 16.7386 0C16.7386 0 15.7216 0.449133 13.5087 0.449133H3.33112C-0.62491 0.449133 0.0453805 4.91657 0.0453805 4.91657C0.0453805 4.91657 0.246632 3.89633 2.83333 3.98204H6.49775V19.8146C6.49775 21.6845 10.0192 21.6845 10.0192 21.6845V3.96638L14.0057 3.96803ZM22.9067 13.8061C22.266 15.3249 17.5313 14.5338 17.5313 17.1025C17.5313 18.3881 18.4628 19.1158 20.1204 19.1158C21.0721 19.106 22.0157 18.9389 22.9133 18.6213L22.9067 13.8061ZM22.7055 10.8583C22.7055 9.77957 22.1231 8.84422 19.9126 8.84422C17.4762 8.84422 15.2362 9.71611 15.2362 12.1406C14.5433 11.3381 14.1616 10.3122 14.1609 9.2505C14.1609 6.65294 17.5337 5.95411 19.8904 5.95411C24.1282 5.95411 26.4356 7.75229 26.4356 11.0058V21.7191C25.742 21.4023 24.9863 21.246 24.2243 21.2617C22.7991 21.2617 21.3435 21.7562 19.713 21.7562C16.6893 21.7562 13.8356 20.6189 13.8356 17.1454C13.8044 11.7302 21.5407 13.1411 22.7071 10.8534L22.7055 10.8583ZM39.1145 11.3841V19.7297C39.1145 21.5271 42.6984 21.5988 42.6984 21.5988V10.813C42.6984 6.98835 39.6739 5.99531 36.7356 5.99531C35.1634 5.99531 33.8548 6.63811 32.4305 6.63811C31.528 6.63963 30.6389 6.41891 29.8413 5.99531V19.7297C29.8413 21.5988 33.2724 21.5988 33.2724 21.5988V9.36587C34.2787 9.09565 35.3131 8.94491 36.3544 8.91674C38.4204 8.91674 39.1186 9.76144 39.1186 11.3701L39.1145 11.3841ZM46.0967 19.7297C46.0967 21.5988 49.6806 21.5988 49.6806 21.5988V8.05391C49.6806 6.18403 46.3948 6.18403 46.0967 6.18403V19.7297ZM49.8161 2.35527C49.8161 1.96866 49.7018 1.59072 49.4877 1.26926C49.2736 0.947806 48.9693 0.69726 48.6133 0.549309C48.2573 0.401358 47.8655 0.362647 47.4876 0.438072C47.1096 0.513496 46.7624 0.699669 46.4899 0.973047C46.2174 1.24643 46.0318 1.59473 45.9567 1.97392C45.8815 2.3531 45.9201 2.74614 46.0675 3.10333C46.215 3.46051 46.4648 3.7658 46.7852 3.98059C47.1056 4.19539 47.4823 4.31003 47.8677 4.31003C48.3762 4.28451 48.8572 4.07038 49.2172 3.70917C49.5772 3.34797 49.7907 2.86545 49.8161 2.35527ZM64.5995 19.7783C64.5995 21.6474 68.1202 21.6474 68.1202 21.6474V2.216C68.1202 0.346121 64.5995 0.346121 64.5995 0.346121V9.42438H56.984V2.2333C56.984 0.364251 53.552 0.364251 53.552 0.364251V19.7882C53.552 21.6573 56.984 21.6573 56.984 21.6573V12.3137H64.5995V19.7783ZM74.7228 16.538V8.13879C74.7228 6.34143 71.2022 6.26974 71.2022 6.26974V16.983C71.2022 20.717 74.0821 21.7422 77.0795 21.7422C78.6518 21.7422 79.9595 21.1579 81.2992 21.1579C82.1952 21.154 83.0804 21.3538 83.8884 21.7422V8.13879C83.8884 6.26974 80.3677 6.26974 80.3677 6.26974V18.5026C79.4098 18.7717 78.4229 18.9234 77.4286 18.9542C75.4219 18.9542 74.7409 18.0782 74.7409 16.5594L74.7228 16.538ZM90.6932 18.5513C91.4675 18.8737 92.3015 19.0268 93.1394 19.0004C95.4953 19.0004 96.3685 18.1244 96.3685 16.2594V12.0804C96.3685 10.2106 95.1462 9.33868 93.7793 9.33868C92.2071 9.33868 90.6973 10.3589 90.6973 11.703V18.5612L90.6932 18.5513ZM99.9031 16.9855C99.9031 20.2258 97.6031 21.7446 93.2421 21.7446C91.8761 21.7446 91.0875 21.4521 89.9564 21.2947C89.231 21.237 88.1648 21.1513 87.2234 21.7446V0.494459C87.5151 0.494459 90.7449 0.494459 90.7449 2.65607V7.46962C90.7449 7.46962 91.8202 6.53427 94.1761 6.53427C97.2581 6.53427 99.9056 8.25581 99.9056 11.4377L99.9031 16.9855Z" fill="#E16259"/>
<g opacity="0.9">
<path opacity="0.9" d="M120.866 9.21505V21.921C120.866 21.921 118.514 21.921 118.514 20.4467V6.76665C119.064 7.07056 119.68 7.23281 120.307 7.23886C121.54 7.23886 122.541 6.61914 124.157 6.61914C126.211 6.61914 127.626 7.41522 127.626 9.00902C127.626 9.71692 127.362 10.3358 126.804 11.1031C126.804 9.48123 125.394 8.71317 123.689 8.71317C122.727 8.71906 121.772 8.88876 120.866 9.21505Z" fill="#E16259"/>
<path opacity="0.9" d="M141.497 17.3233C141.497 20.3016 139.469 22.0701 135.149 22.0701C130.829 22.0701 128.801 20.3016 128.801 17.3233V11.3676C128.801 8.38934 130.829 6.62 135.15 6.62C139.471 6.62 141.498 8.38934 141.498 11.3676L141.497 17.3233ZM139.146 11.8093C139.146 9.74498 138.47 8.53686 135.149 8.53686C131.828 8.53686 131.151 9.74498 131.151 11.8093V16.8816C131.151 18.9419 131.827 20.1541 135.149 20.1541C138.471 20.1541 139.146 18.9452 139.146 16.8816V11.8093Z" fill="#E16259"/>
<path opacity="0.9" d="M147.667 17.2055C147.667 19.0334 148.607 20.0948 151.223 20.0948C153.369 20.0948 154.75 19.4759 154.75 19.4759V6.76746C154.75 6.76746 157.102 6.76746 157.102 8.24177V21.921C156.513 21.6092 155.857 21.4473 155.191 21.4496C153.78 21.4496 152.487 22.0677 150.812 22.0677C148.138 22.0677 145.316 21.1249 145.316 17.6456V6.76746C145.316 6.76746 147.667 6.79712 147.667 8.24177V17.2055Z" fill="#E16259"/>
<path opacity="0.9" d="M114.989 18.1946V6.76763C112.815 7.71122 111.874 6.62012 109.376 6.62012C105.351 6.62012 103.203 8.33012 103.203 11.3084V17.4117C103.203 20.3315 105.586 22.0703 108.347 22.0703C110.9 22.0703 112.146 21.2371 112.648 20.7658V21.5396L112.638 21.5808V22.9776C112.532 24.4857 111.598 25.6774 108.651 25.6774C105.33 25.6774 104.226 24.4676 104.226 22.4041C103.668 23.2001 103.433 23.908 103.433 24.5269C103.433 26.5608 105.33 27.5934 108.651 27.5934C113.03 27.5934 115 25.529 115 22.5516L114.989 18.1946ZM112.638 17.2642C112.638 18.975 110.666 20.1543 108.729 20.1543C106.906 20.1543 105.555 19.181 105.555 16.97V11.7501C105.555 9.59841 106.407 8.53614 109.435 8.53614C111.639 8.53614 112.638 9.21438 112.638 9.21438V17.2642Z" fill="#E16259"/>
<path opacity="0.9" d="M166.828 6.62C164.33 6.62 163.388 7.71111 161.214 6.76752V27.2307C161.214 29.0297 163.359 29 163.565 29V20.7755C164.074 21.2485 165.321 22.0702 167.856 22.0702C170.618 22.0702 173 20.3313 173 17.4115V11.3083C173 8.33001 170.853 6.62 166.828 6.62ZM170.648 16.9698C170.648 19.1809 169.296 20.1541 167.474 20.1541C165.535 20.1541 163.565 18.9748 163.565 17.264V9.21509C163.565 9.21509 164.564 8.53686 166.768 8.53686C169.795 8.53686 170.648 9.59829 170.648 11.7508V16.9698Z" fill="#E16259"/>
</g>
</g>
<defs>
<clipPath id="clip0_4139_25">
<rect width="173" height="29" fill="white"/>
</clipPath>
</defs>
</svg>
