<svg width="162" height="16" viewBox="0 0 162 16" fill="none" xmlns="http://www.w3.org/2000/svg">
<path d="M4.788 15V3.072H0.084V0.299999H12.894V3.072H8.19V15H4.788ZM17.8534 6.222H24.9304V8.868H17.8534V6.222ZM18.1054 12.27H26.1064V15H14.7244V0.299999H25.8334V3.03H18.1054V12.27ZM28.8133 15V0.299999H35.1763C36.4923 0.299999 37.6263 0.516999 38.5783 0.950999C39.5303 1.371 40.2653 1.98 40.7833 2.778C41.3013 3.576 41.5603 4.528 41.5603 5.634C41.5603 6.726 41.3013 7.671 40.7833 8.469C40.2653 9.253 39.5303 9.855 38.5783 10.275C37.6263 10.695 36.4923 10.905 35.1763 10.905H30.7033L32.2153 9.414V15H28.8133ZM38.1583 15L34.4833 9.666H38.1163L41.8333 15H38.1583ZM32.2153 9.792L30.7033 8.196H34.9873C36.0373 8.196 36.8213 7.972 37.3393 7.524C37.8573 7.062 38.1163 6.432 38.1163 5.634C38.1163 4.822 37.8573 4.192 37.3393 3.744C36.8213 3.296 36.0373 3.072 34.9873 3.072H30.7033L32.2153 1.455V9.792ZM44.2557 15V0.299999H47.0697L55.7427 10.884H54.3777V0.299999H57.7377V15H54.9447L46.2507 4.416H47.6157V15H44.2557ZM59.2837 15L65.8357 0.299999H69.1957L75.7687 15H72.1987L66.8227 2.022H68.1667L62.7697 15H59.2837ZM62.5597 11.85L63.4627 9.267H71.0227L71.9467 11.85H62.5597ZM80.3388 11.64L80.1498 7.713L87.1848 0.299999H90.9648L84.6228 7.125L82.7328 9.141L80.3388 11.64ZM77.2938 15V0.299999H80.6748V15H77.2938ZM87.3528 15L82.1238 8.595L84.3498 6.18L91.3218 15H87.3528ZM99.1646 15.252C97.0786 15.252 95.4476 14.671 94.2716 13.509C93.0956 12.347 92.5076 10.688 92.5076 8.532V0.299999H95.9096V8.406C95.9096 9.806 96.1966 10.814 96.7706 11.43C97.3446 12.046 98.1496 12.354 99.1856 12.354C100.222 12.354 101.027 12.046 101.601 11.43C102.175 10.814 102.462 9.806 102.462 8.406V0.299999H105.822V8.532C105.822 10.688 105.234 12.347 104.058 13.509C102.882 14.671 101.251 15.252 99.1646 15.252ZM106.944 15L113.496 0.299999H116.856L123.429 15H119.859L114.483 2.022H115.827L110.43 15H106.944ZM110.22 11.85L111.123 9.267H118.683L119.607 11.85H110.22ZM124.954 15V0.299999H127.768L136.441 10.884H135.076V0.299999H138.436V15H135.643L126.949 4.416H128.314V15H124.954ZM149.012 15.252C147.85 15.252 146.779 15.07 145.799 14.706C144.833 14.328 143.986 13.796 143.258 13.11C142.544 12.424 141.984 11.619 141.578 10.695C141.186 9.771 140.99 8.756 140.99 7.65C140.99 6.544 141.186 5.529 141.578 4.605C141.984 3.681 142.551 2.876 143.279 2.19C144.007 1.504 144.861 0.978999 145.841 0.614999C146.821 0.236999 147.899 0.0479997 149.075 0.0479997C150.377 0.0479997 151.546 0.264999 152.582 0.698999C153.632 1.133 154.514 1.763 155.228 2.589L153.044 4.605C152.512 4.045 151.931 3.632 151.301 3.366C150.671 3.086 149.985 2.946 149.243 2.946C148.529 2.946 147.878 3.058 147.29 3.282C146.702 3.506 146.191 3.828 145.757 4.248C145.337 4.668 145.008 5.165 144.77 5.739C144.546 6.313 144.434 6.95 144.434 7.65C144.434 8.336 144.546 8.966 144.77 9.54C145.008 10.114 145.337 10.618 145.757 11.052C146.191 11.472 146.695 11.794 147.269 12.018C147.857 12.242 148.501 12.354 149.201 12.354C149.873 12.354 150.524 12.249 151.154 12.039C151.798 11.815 152.421 11.444 153.023 10.926L154.955 13.383C154.157 13.985 153.226 14.447 152.162 14.769C151.112 15.091 150.062 15.252 149.012 15.252ZM151.847 12.942V7.419H154.955V13.383L151.847 12.942ZM159.328 15.168C158.768 15.168 158.285 14.979 157.879 14.601C157.487 14.209 157.291 13.712 157.291 13.11C157.291 12.508 157.487 12.025 157.879 11.661C158.285 11.283 158.768 11.094 159.328 11.094C159.902 11.094 160.385 11.283 160.777 11.661C161.169 12.025 161.365 12.508 161.365 13.11C161.365 13.712 161.169 14.209 160.777 14.601C160.385 14.979 159.902 15.168 159.328 15.168Z" fill="#E16259"/>
</svg>
